<svg id="Layer_1" data-name="Layer 1" xmlns="http://www.w3.org/2000/svg" viewBox="0 0 594 113"><defs><style>.cls-1{fill:#f26622;}.cls-2,.cls-3{fill:#fff;}.cls-3{font-size:26px;font-family:Gotham-Medium, Gotham;font-weight:500;}.cls-4{letter-spacing:-0.02em;}.cls-5{letter-spacing:-0.09em;}.cls-6{letter-spacing:0em;}.cls-7{letter-spacing:-0.09em;}.cls-8{letter-spacing:0em;}</style></defs><rect class="cls-1" width="594" height="113"/><polygon class="cls-2" points="10 9 44 43 10 77.87 54 77.87 88.44 43.44 54.21 9.21 10 9"/><path class="cls-2" d="M100.25,386.59h15.52V445H100.25Zm.07-18.84h15.53v12.88H100.32Z" transform="translate(-1 -362)"/><path class="cls-2" d="M124.77,404.08c0-10.42,0-15.33-.17-17.49h14.88a36.46,36.46,0,0,1,.53,4.94c1.81-2.79,5.24-5.83,11.89-5.83,8.53,0,13,5,13,15.17V445H149.38v-41.1c0-4-1.34-5.83-4.22-5.83-3.51,0-4.87,1.79-4.87,7.57V445H124.77Z" transform="translate(-1 -362)"/><path class="cls-2" d="M175.93,445v-45.8h-5.75V386.59h5.75v-3.78c0-8.6,3.36-15.73,16-15.73a28,28,0,0,1,6,.52v11.63a14.54,14.54,0,0,0-2.17-.11c-3.32,0-4.33,1.38-4.33,4.65v2.82h7v12.57h-7V445Z" transform="translate(-1 -362)"/><path class="cls-2" d="M242.52,404.89v21.92c0,12.89-7.53,19.08-20.28,19.08-13,0-19.86-6.33-19.86-19.08V404.33c0-13.05,8.6-18.63,20.1-18.63C234.58,385.7,242.52,391.66,242.52,404.89Zm-24.62-1.25v24c0,3.78,1.16,6.37,4.63,6.37s4.46-2.46,4.46-6.52V403.53c0-3.51-.91-6-4.54-6C219.26,397.49,217.9,399.7,217.9,403.64Z" transform="translate(-1 -362)"/><path class="cls-2" d="M250.16,406.41c0-10,0-14.78-.17-19.82h14.8c.16,1.19.45,6.07.45,8.72,2.28-6.82,7.37-9.57,13.29-9.61v17.13c-7.47,0-12.85,1.27-12.85,11.16v31H250.16Z" transform="translate(-1 -362)"/><path class="cls-2" d="M284.22,404.41c0-12.72,0-15.7-.16-17.82h14.75a31,31,0,0,1,.52,4.75c2.43-3.76,6.29-5.64,11.16-5.64,5.83,0,8.83,2.42,10.32,5.86a14.61,14.61,0,0,1,12.33-5.86c8.28,0,12.94,4.88,12.94,15V445H330.73V403.17c0-3.33-1-5.14-3.72-5.14-3.22,0-4.18,2.11-4.18,6.8V445H307.39V403.24c0-4.29-1.43-5.21-3.71-5.21-3.26,0-4.1,2.15-4.1,6.55V445H284.22Z" transform="translate(-1 -362)"/><path class="cls-2" d="M392.13,431.61c0,5.22.09,10.79.37,13.35H378.06a28,28,0,0,1-.93-4.29c-2.43,3.63-6.08,5.14-10.86,5.14-9.71,0-13.58-8.2-13.58-17.12v-1.07c0-14.95,11-18.54,22.87-18.54h1v-6.79c0-3.94-.61-5.72-3.48-5.72s-3.55,1.93-3.55,5.34v1.36H354.62v-.91c0-10.14,5-16.66,19.16-16.66,12.57,0,18.35,5.47,18.35,15.67Zm-15.37-12.56h-1.47c-4.56,0-7.54,1.85-7.54,7.95v.73c0,4,1.44,6.12,4.43,6.12,3.15,0,4.58-2,4.58-8Z" transform="translate(-1 -362)"/><path class="cls-2" d="M440.15,420.82v4c0,9.33-1.88,21.24-20.36,21.24-13.65,0-19.58-6.67-19.58-20.27V389.53c0-12.86,7-19.64,19.91-19.64,17,0,19.79,10.29,19.79,20v4.65H424.3v-6.31c0-4.08-.94-6.14-4.18-6.14s-4.22,1.95-4.22,6.14V427.3c0,3.95.71,6.64,4.21,6.64,3.35,0,4.35-2.26,4.35-7v-6.15Z" transform="translate(-1 -362)"/><path class="cls-2" d="M446.82,386.59h15.52V445H446.82Zm.08-18.84h15.52v12.88H446.9Z" transform="translate(-1 -362)"/><path class="cls-2" d="M510.21,404.89v21.92c0,12.89-7.53,19.08-20.28,19.08-13,0-19.86-6.33-19.86-19.08V404.33c0-13.05,8.6-18.63,20.1-18.63C502.28,385.7,510.21,391.66,510.21,404.89Zm-24.61-1.25v24c0,3.78,1.15,6.37,4.62,6.37s4.47-2.46,4.47-6.52V403.53c0-3.51-.92-6-4.55-6C487,397.49,485.6,399.7,485.6,403.64Z" transform="translate(-1 -362)"/><path class="cls-2" d="M517.85,404.08c0-10.42-.05-15.33-.17-17.49h14.88a36.46,36.46,0,0,1,.53,4.94c1.81-2.79,5.24-5.83,11.89-5.83,8.53,0,13,5,13,15.17V445H542.46v-41.1c0-4-1.34-5.83-4.22-5.83-3.51,0-4.87,1.79-4.87,7.57V445H517.85Z" transform="translate(-1 -362)"/><path class="cls-2" d="M566.34,445v-17.9h15.44V445Z" transform="translate(-1 -362)"/><text class="cls-3" transform="translate(5 108.39) scale(1.02 1)"><tspan class="cls-4">C</tspan><tspan x="18.67" y="0">ONTEMPL</tspan><tspan class="cls-5" x="151.61" y="0">A</tspan><tspan x="169.81" y="0">TE. </tspan><tspan class="cls-4" x="218.87" y="0">C</tspan><tspan class="cls-6" x="237.53" y="0">OLLABPOR</tspan><tspan class="cls-7" x="389.4" y="0">A</tspan><tspan x="407.6" y="0">TE. CRE</tspan><tspan class="cls-7" x="512.07" y="0">A</tspan><tspan class="cls-8" x="530.27" y="0">TE.</tspan></text></svg>